<svg version="1.2" xmlns="http://www.w3.org/2000/svg" viewBox="0 0 236 90" width="236" height="90"><style>.a{fill:#292929;stroke:#292929;stroke-width:3}.b{fill:#fff}</style><path fill-rule="evenodd" class="a" d="m28 2h180.6c14.1 0 25.5 11.4 25.5 25.5v35c0 14.1-11.4 25.5-25.5 25.5h-180.6c-14.1 0-25.5-11.4-25.5-25.5v-35c0-14.1 11.4-25.5 25.5-25.5z"/><path class="b" d="m56.4 46.3c0-3.5 1.9-6.9 4.9-8.7-1.9-2.7-5-4.4-8.3-4.5-3.5-0.4-6.9 2.1-8.7 2.1-1.8 0-4.5-2.1-7.5-2-3.8 0.1-7.4 2.3-9.3 5.7-4 7-1 17.2 2.8 22.9 2 2.7 4.2 5.8 7.2 5.7 2.9-0.1 3.9-1.8 7.4-1.8 3.5 0 4.5 1.8 7.5 1.7 3.1 0 5.1-2.7 6.9-5.5 1.4-2 2.5-4.2 3.2-6.5-3.7-1.5-6.1-5.2-6.1-9.1z"/><path class="b" d="m50.7 29.4c1.7-2 2.5-4.7 2.3-7.3-2.5 0.3-4.9 1.5-6.6 3.5-1.7 1.9-2.6 4.4-2.4 7 2.6 0 5.1-1.2 6.7-3.2z"/><path class="b" d="m159.5 42.6v4.3h-2.7v2.8h2.7v9.4c0 3.3 1.4 4.6 5.1 4.6 0.6 0 1.3-0.1 1.8-0.2v-2.8c-0.5 0.1-0.8 0.1-1.3 0.1-1.6 0-2.3-0.8-2.3-2.5v-8.6h3.6v-2.8h-3.6v-4.3z"/><path class="b" d="m175.8 63.9c4.8 0 7.8-3.3 7.8-8.7 0-5.4-3-8.7-7.8-8.7-4.9 0-8 3.3-8 8.7 0 5.4 3 8.7 8 8.7zm0-2.9c-2.9 0-4.5-2.2-4.5-5.8 0-3.7 1.6-5.8 4.5-5.8 2.8 0 4.4 2.1 4.4 5.8 0 3.6-1.6 5.8-4.4 5.8z"/><path class="b" d="m186.2 63.6h3.3v-9.9c0-2.4 1.8-4 4.3-4 0.6 0 1.6 0.1 1.8 0.2v-3.2c-0.3-0.1-1-0.2-1.4-0.2-2.2 0-4.1 1.2-4.6 2.9h-0.2v-2.6h-3.2z"/><path class="b" d="m207.9 59c-0.6 1.4-1.9 2.1-3.9 2.1-2.7 0-4.4-1.9-4.5-4.8v-0.2h11.8v-1.2c0-5.2-2.8-8.4-7.4-8.4-4.8 0-7.8 3.4-7.8 8.7 0 5.4 3 8.7 7.8 8.7 3.8 0 6.5-1.9 7.2-4.9zm-4.1-9.7c2.5 0 4.1 1.7 4.1 4.3h-8.4c0.2-2.6 1.9-4.3 4.3-4.3z"/><path class="b" d="m137.8 57.4c0.2 4.1 3.7 6.7 8.8 6.7 5.4 0 8.8-2.7 8.8-7.1 0-3.5-1.9-5.4-6.6-6.5l-2.6-0.6c-3-0.7-4.2-1.7-4.2-3.3 0-2.1 1.9-3.5 4.7-3.5 2.7 0 4.5 1.4 4.9 3.5h3.5c-0.3-3.9-3.7-6.6-8.3-6.6-5.1 0-8.4 2.7-8.4 6.8 0 3.4 1.9 5.4 6.1 6.4l2.9 0.7c3.1 0.7 4.4 1.8 4.4 3.5 0 2.1-2.1 3.6-5 3.6-3 0-5.2-1.4-5.5-3.6z"/><path class="b" d="m103.5 46.5c-2.2 0-4.2 1.2-5.2 3.1h-0.3v-2.8h-3.1v22.3h3.3v-8.1h0.2c0.9 1.8 2.8 2.8 5.2 2.8 4.2 0 6.9-3.3 6.9-8.6 0-5.3-2.7-8.7-7-8.7zm-0.9 14.4c-2.8 0-4.5-2.2-4.5-5.7 0-3.5 1.7-5.7 4.5-5.7 2.8 0 4.5 2.1 4.5 5.7 0 3.5-1.7 5.7-4.5 5.7z"/><path class="b" d="m122.1 46.5c-2.3 0-4.3 1.2-5.3 3.1h-0.2v-2.8h-3.2v22.3h3.3v-8.1h0.2c0.9 1.8 2.8 2.8 5.2 2.8 4.2 0 6.9-3.3 6.9-8.6 0-5.3-2.7-8.7-6.9-8.7zm-1 14.4c-2.7 0-4.5-2.2-4.5-5.7 0-3.5 1.8-5.7 4.5-5.7 2.8 0 4.5 2.1 4.5 5.7 0 3.5-1.7 5.7-4.5 5.7z"/><path class="b" d="m88.9 63.6h3.8l-8.3-23.1h-3.8l-8.3 23.1h3.6l2.2-6.1h8.7zm-6.6-18.9h0.3l3.3 9.8h-6.9z"/><path class="b" d="m72.2 24.3v9.1h3.3c2.7 0 4.2-1.7 4.2-4.6 0-2.8-1.5-4.5-4.2-4.5zm1.4 1.3h1.7c1.9 0 3 1.2 3 3.3 0 2-1.1 3.2-3 3.2h-1.7z"/><path class="b" d="m84.5 33.5c2 0 3.3-1.3 3.3-3.5 0-2.2-1.3-3.6-3.3-3.6-2 0-3.2 1.4-3.2 3.6 0 2.2 1.2 3.5 3.2 3.5zm0-1.2c-1.1 0-1.8-0.8-1.8-2.3 0-1.5 0.7-2.4 1.8-2.4 1.2 0 1.9 0.9 1.9 2.4 0 1.5-0.7 2.3-1.9 2.3z"/><path class="b" d="m98.2 26.5h-1.3l-1.2 5.3h-0.2l-1.4-5.3h-1.3l-1.4 5.3h-0.1l-1.2-5.3h-1.4l1.9 6.9h1.4l1.4-5h0.1l1.4 5h1.4z"/><path class="b" d="m99.8 33.4h1.3v-4c0-1.1 0.7-1.7 1.7-1.7q1.5 0 1.5 1.6v4.1h1.3v-4.4c0-1.7-0.8-2.6-2.4-2.6-1 0-1.7 0.5-2 1.2h-0.1v-1.1h-1.3z"/><path class="b" d="m107.8 33.4h1.3v-9.5h-1.3z"/><path class="b" d="m114.2 33.5c2 0 3.2-1.3 3.2-3.5 0-2.2-1.2-3.6-3.2-3.6-2 0-3.2 1.4-3.2 3.6 0 2.2 1.2 3.5 3.2 3.5zm0-1.2c-1.2 0-1.8-0.8-1.8-2.3 0-1.5 0.6-2.4 1.8-2.4 1.2 0 1.8 0.9 1.8 2.4 0 1.5-0.6 2.3-1.8 2.3z"/><path class="b" d="m121.1 33.5c0.9 0 1.7-0.4 2.1-1.1h0.1v1h1.3v-4.7c0-1.4-1-2.3-2.7-2.3-1.6 0-2.7 0.8-2.8 1.9h1.3c0.2-0.4 0.7-0.7 1.4-0.7 1 0 1.4 0.4 1.4 1.1v0.6l-1.8 0.1c-1.6 0.1-2.6 0.8-2.6 2.1 0 1.2 1 2 2.3 2zm0.4-1.1c-0.8 0-1.3-0.4-1.3-1 0-0.6 0.4-0.9 1.4-1l1.6-0.1v0.6c0 0.8-0.7 1.5-1.7 1.5z"/><path class="b" d="m129.2 33.5c0.9 0 1.7-0.4 2.1-1.2h0.1v1.1h1.3v-9.5h-1.3v3.7h-0.1c-0.4-0.7-1.2-1.2-2.1-1.2-1.7 0-2.9 1.4-2.9 3.6 0 2.1 1.1 3.5 2.9 3.5zm0.4-5.9c1.1 0 1.8 0.9 1.8 2.4 0 1.4-0.7 2.3-1.8 2.3-1.2 0-1.9-0.9-1.9-2.3 0-1.5 0.7-2.4 1.9-2.4z"/><path class="b" d="m141.5 33.5c2 0 3.3-1.3 3.3-3.5 0-2.2-1.3-3.6-3.3-3.6-2 0-3.2 1.4-3.2 3.6 0 2.2 1.2 3.5 3.2 3.5zm0-1.2c-1.2 0-1.8-0.8-1.8-2.3 0-1.5 0.6-2.4 1.8-2.4 1.2 0 1.9 0.9 1.9 2.4 0 1.5-0.7 2.3-1.9 2.3z"/><path class="b" d="m146.5 33.4h1.4v-4c0-1.1 0.6-1.7 1.6-1.7q1.5 0 1.5 1.6v4.1h1.4v-4.4c0-1.7-0.9-2.6-2.4-2.6-1 0-1.7 0.5-2 1.2h-0.1v-1.1h-1.4z"/><path class="b" d="m158.6 24.8v1.8h-1.1v1.1h1.1v3.9c0 1.3 0.6 1.8 2.1 1.8q0.4 0 0.8 0v-1.1c-0.2 0-0.4 0-0.6 0-0.6 0-0.9-0.3-0.9-1.1v-3.5h1.5v-1.1h-1.5v-1.8z"/><path class="b" d="m163.3 33.4h1.3v-4c0-1 0.6-1.7 1.7-1.7 1 0 1.5 0.5 1.5 1.6v4.1h1.4v-4.4c0-1.7-0.9-2.6-2.4-2.6-1 0-1.7 0.5-2.1 1.2h-0.1v-3.7h-1.3z"/><path class="b" d="m175.7 31.6c-0.2 0.5-0.8 0.8-1.6 0.8-1.1 0-1.8-0.8-1.8-2v-0.1h4.8v-0.4c0-2.2-1.1-3.5-3-3.5-2 0-3.2 1.4-3.2 3.6 0 2.2 1.2 3.5 3.2 3.5 1.5 0 2.6-0.7 2.9-1.9zm-1.6-4c1 0 1.6 0.7 1.6 1.7h-3.4c0.1-1 0.8-1.7 1.8-1.7z"/></svg>