<svg version="1.2" xmlns="http://www.w3.org/2000/svg" viewBox="0 0 230 90" width="230" height="90"><defs><linearGradient id="P" gradientUnits="userSpaceOnUse"/><linearGradient id="g1" x2="1" href="#P" gradientTransform="matrix(-27.852,27.817,-27.851,-27.885,44.739,26.466)"><stop stop-color="#00a0ff"/><stop offset=".01" stop-color="#00a1ff"/><stop offset=".26" stop-color="#00beff"/><stop offset=".51" stop-color="#00d2ff"/><stop offset=".76" stop-color="#00dfff"/><stop offset="1" stop-color="#00e3ff"/></linearGradient><linearGradient id="g2" x2="1" href="#P" gradientTransform="matrix(-40.107,0,0,-33.795,64.683,45.206)"><stop stop-color="#ffe000"/><stop offset=".41" stop-color="#ffbd00"/><stop offset=".78" stop-color="#ffa500"/><stop offset="1" stop-color="#ff9c00"/></linearGradient><linearGradient id="g3" x2="1" href="#P" gradientTransform="matrix(-37.77,37.724,-12.786,-12.801,49.756,49.013)"><stop stop-color="#ff3a44"/><stop offset="1" stop-color="#c31162"/></linearGradient><linearGradient id="g4" x2="1" href="#P" gradientTransform="matrix(16.866,16.845,-5.709,5.716,20.698,12.305)"><stop stop-color="#32a071"/><stop offset=".07" stop-color="#2da771"/><stop offset=".48" stop-color="#15cf74"/><stop offset=".8" stop-color="#06e775"/><stop offset="1" stop-color="#00f076"/></linearGradient></defs><style>.a{fill:#292929;stroke:#292929;stroke-width:3}.b{fill:url(#g1)}.c{fill:url(#g2)}.d{fill:url(#g3)}.e{fill:url(#g4)}.f{fill:#fff}.g{fill:none;stroke:#fff;stroke-miterlimit:10;stroke-width:.4}</style><path fill-rule="evenodd" class="a" d="m27.6 2h175.3c14 0 25.5 11.4 25.5 25.5v35c0 14.1-11.5 25.5-25.5 25.5h-175.3c-14.1 0-25.5-11.4-25.5-25.5v-35c0-14.1 11.4-25.5 25.5-25.5z"/><path class="b" d="m25.9 24.5c-0.5 0.5-0.8 1.3-0.8 2.4v36.7c0 1 0.3 1.8 0.8 2.3l0.1 0.1 20.6-20.6v-0.2-0.2l-20.6-20.6z"/><path class="c" d="m53.4 52.3l-6.8-6.9v-0.2-0.2l6.8-6.9 0.2 0.1 8.1 4.6c2.3 1.3 2.3 3.5 0 4.8l-8.1 4.6z"/><path class="d" d="m53.6 52.2l-7-7-20.7 20.7c0.8 0.8 2 0.9 3.4 0.1z"/><path class="e" d="m53.6 38.2l-24.3-13.8c-1.4-0.8-2.6-0.7-3.4 0.1l20.7 20.7z"/><path class="f" d="m115.5 47.2c-3.7 0-6.7 2.8-6.7 6.7 0 3.8 3 6.6 6.7 6.6 3.7 0 6.7-2.8 6.7-6.6 0-3.9-3-6.7-6.7-6.7zm0 10.7c-2 0-3.8-1.7-3.8-4 0-2.4 1.8-4.1 3.8-4.1 2 0 3.7 1.7 3.7 4.1 0 2.3-1.7 4-3.7 4zm-14.6-10.7c-3.7 0-6.7 2.8-6.7 6.7 0 3.8 3 6.6 6.7 6.6 3.7 0 6.7-2.8 6.7-6.6 0-3.9-3-6.7-6.7-6.7zm0 10.7c-2 0-3.7-1.7-3.7-4 0-2.4 1.7-4.1 3.7-4.1 2 0 3.8 1.7 3.8 4.1 0 2.3-1.8 4-3.8 4zm-17.3-8.6v2.8h6.7c-0.2 1.6-0.7 2.7-1.5 3.5-1 1-2.5 2.1-5.2 2.1-4.2 0-7.4-3.4-7.4-7.5 0-4.2 3.2-7.5 7.4-7.5 2.2 0 3.8 0.9 5.1 2l2-2c-1.7-1.6-4-2.8-7.1-2.8-5.7 0-10.5 4.6-10.5 10.3 0 5.7 4.8 10.3 10.5 10.3 3 0 5.4-1 7.2-2.9 1.8-1.9 2.4-4.5 2.4-6.6q0-1-0.1-1.7zm70.9 2.1c-0.6-1.4-2.2-4.2-5.7-4.2-3.4 0-6.3 2.7-6.3 6.6 0 3.8 2.8 6.7 6.6 6.7 3.1 0 4.8-1.9 5.6-3l-2.3-1.5c-0.7 1.1-1.8 1.9-3.3 1.9q-2.2 0-3.2-2l8.9-3.7zm-9.1 2.2c0-2.6 2-3.9 3.5-3.9 1.2 0 2.2 0.6 2.5 1.4zm-7.3 6.5h3v-19.5h-3zm-4.8-11.4h-0.1c-0.6-0.8-1.9-1.5-3.5-1.5-3.3 0-6.3 2.9-6.3 6.7 0 3.7 3 6.6 6.3 6.6 1.6 0 2.9-0.7 3.5-1.5h0.1v0.9c0 2.6-1.3 3.9-3.5 3.9-1.8 0-2.9-1.3-3.4-2.4l-2.5 1.1c0.7 1.8 2.7 3.9 5.9 3.9 3.4 0 6.3-2 6.3-6.9v-11.9h-2.7zm-3.4 9.2c-2 0-3.7-1.7-3.7-4 0-2.4 1.7-4.1 3.7-4.1 2 0 3.6 1.7 3.6 4.1 0 2.3-1.6 4-3.6 4zm38.2-17.3h-7v19.5h2.9v-7.4h4.1c3.2 0 6.4-2.3 6.4-6.1 0-3.7-3.2-6-6.4-6zm0 9.4h-4.1v-6.7h4.1c2.2 0 3.5 1.8 3.5 3.3 0 1.5-1.3 3.4-3.5 3.4zm18.1-2.8c-2.1 0-4.3 0.9-5.2 3l2.6 1c0.5-1 1.6-1.4 2.6-1.4 1.6 0 3.1 0.9 3.1 2.5v0.2c-0.5-0.3-1.6-0.7-3-0.7-2.8 0-5.7 1.5-5.7 4.4 0 2.6 2.3 4.3 4.9 4.3 2 0 3-0.9 3.7-2h0.1v1.6h2.8v-7.5c0-3.5-2.6-5.4-5.9-5.4zm-0.4 10.7c-0.9 0-2.2-0.5-2.2-1.7 0-1.5 1.6-2.1 3-2.1 1.3 0 1.9 0.3 2.7 0.7-0.2 1.8-1.8 3.1-3.5 3.1zm16.6-10.3l-3.3 8.5h-0.1l-3.5-8.5h-3.2l5.3 11.8-3 6.6h3l8.1-18.4zm-26.4 12.5h3v-19.5h-3z"/><path class="f" d="m83.2 29q0 2-1.2 3.1-1.3 1.4-3.4 1.4-2 0-3.5-1.4-1.4-1.4-1.4-3.4 0-2.1 1.4-3.5 1.5-1.3 3.5-1.3 1 0 1.9 0.4 0.9 0.3 1.5 1l-0.8 0.8q-1-1.1-2.6-1.1-1.5 0-2.6 1-1.1 1-1.1 2.7 0 1.6 1.1 2.6 1.1 1 2.6 1 1.6 0 2.6-1 0.7-0.7 0.8-1.8h-3.4v-1.2h4.5q0.1 0.4 0.1 0.7z"/><path class="f" d="m90.4 25.2h-4.3v2.9h3.9v1.1h-3.9v2.9h4.3v1.2h-5.5v-9.2h5.5z"/><path class="f" d="m95.5 33.3h-1.2v-8.1h-2.6v-1.1h6.4v1.1h-2.6z"/><path class="f" d="m102.8 33.3v-9.2h1.2v9.2z"/><path class="f" d="m109.3 33.3h-1.2v-8.1h-2.6v-1.1h6.5v1.1h-2.7z"/><path class="f" d="m124.2 32.1q-1.4 1.4-3.5 1.4-2 0-3.4-1.4-1.4-1.4-1.4-3.4 0-2 1.4-3.4 1.4-1.4 3.4-1.4 2.1 0 3.5 1.4 1.3 1.4 1.4 3.4-0.1 2-1.4 3.4zm-6-0.8q1 1 2.5 1 1.5 0 2.6-1 1-1 1-2.6 0-1.6-1-2.7-1.1-1-2.6-1-1.5 0-2.5 1-1.1 1.1-1.1 2.7 0 1.6 1.1 2.6z"/><path class="f" d="m127.2 33.3v-9.2h1.5l4.6 7.1v-1.7-5.4h1.2v9.2h-1.3l-4.8-7.5v1.7 5.8z"/><path class="g" d="m83.2 29q0 2-1.2 3.1-1.3 1.4-3.4 1.4-2 0-3.5-1.4-1.4-1.4-1.4-3.4 0-2.1 1.4-3.5 1.5-1.3 3.5-1.3 1 0 1.9 0.4 0.9 0.3 1.5 1l-0.8 0.8q-1-1.1-2.6-1.1-1.5 0-2.6 1-1.1 1-1.1 2.7 0 1.6 1.1 2.6 1.1 1 2.6 1 1.6 0 2.6-1 0.7-0.7 0.8-1.8h-3.4v-1.2h4.5q0.1 0.4 0.1 0.7z"/><path class="g" d="m90.4 25.2h-4.3v2.9h3.9v1.1h-3.9v2.9h4.3v1.2h-5.5v-9.2h5.5z"/><path class="g" d="m95.5 33.3h-1.2v-8.1h-2.6v-1.1h6.4v1.1h-2.6z"/><path class="g" d="m102.8 33.3v-9.2h1.2v9.2z"/><path class="g" d="m109.3 33.3h-1.2v-8.1h-2.6v-1.1h6.5v1.1h-2.7z"/><path class="g" d="m124.2 32.1q-1.4 1.4-3.5 1.4-2 0-3.4-1.4-1.4-1.4-1.4-3.4 0-2 1.4-3.4 1.4-1.4 3.4-1.4 2.1 0 3.5 1.4 1.3 1.4 1.4 3.4-0.1 2-1.4 3.4zm-6-0.8q1 1 2.5 1 1.5 0 2.6-1 1-1 1-2.6 0-1.6-1-2.7-1.1-1-2.6-1-1.5 0-2.5 1-1.1 1.1-1.1 2.7 0 1.6 1.1 2.6z"/><path class="g" d="m127.2 33.3v-9.2h1.5l4.6 7.1v-1.7-5.4h1.2v9.2h-1.3l-4.8-7.5v1.7 5.8z"/></svg>