<svg width="231" height="10" viewBox="0 0 231 10" fill="none" xmlns="http://www.w3.org/2000/svg">
<path fill-rule="evenodd" clip-rule="evenodd" d="M13.441 0.273203C0.592674 0.525993 -0.860674 0.793988 2.78305 2.1519C6.79121 3.65677 15.1574 3.98554 80.1345 4.28067C5.1017 5.11691 -1.80525 5.67368 1.2343 7.40685C5.12471 9.58214 29.9736 9.22981 150.951 8.67591C187.196 8.52487 207.322 9.05291 217.625 8.85055C231.928 8.55299 228.404 6.85963 222.46 6.10905L225.732 5.906C234.336 5.37755 229.108 2.35337 218.072 1.5176C208.37 0.786544 152.605 0.257443 98.9039 0.387507C27.8683 0.607601 28.1075 -0.0262425 13.441 0.273203Z" fill="#B0E0F5"/>
</svg>
