<svg width="131" height="10" viewBox="0 0 131 10" fill="none" xmlns="http://www.w3.org/2000/svg">
<path fill-rule="evenodd" clip-rule="evenodd" d="M7.23499 0.0658327C-0.0573035 0.289812 -0.881639 0.554545 1.18963 1.92061C3.46808 3.43445 8.21754 3.78198 45.1 4.22279C2.51237 4.89079 -1.40685 5.43206 0.322324 7.17203C2.53544 9.35602 16.6392 9.05941 85.3063 8.77676C105.879 8.707 117.304 9.28015 123.151 9.1009C131.269 8.83541 129.265 7.13416 125.89 6.37027L127.746 6.17455C132.629 5.66541 129.655 2.62954 123.389 1.76904C117.88 1.01623 86.2261 0.362104 55.745 0.371758C15.4248 0.432576 15.5592 -0.200724 7.23499 0.0658327Z" fill="#B0E0F5"/>
</svg>
