<svg width="219" height="9" viewBox="0 0 219 9" fill="none" xmlns="http://www.w3.org/2000/svg">
<path fill-rule="evenodd" clip-rule="evenodd" d="M12.1559 0.0801259C-0.0739431 0.329693 -1.45727 0.597323 2.01141 1.95615C5.82701 3.46202 13.7906 3.79289 75.6402 4.10432C4.21919 4.92174 -2.35517 5.47677 0.538512 7.2107C4.2422 9.38697 27.895 9.04087 143.05 8.51731C177.55 8.37537 196.707 8.90846 206.514 8.70868C220.128 8.41471 216.773 6.72046 211.115 5.9684L214.23 5.76616C222.42 5.23988 217.443 2.21439 206.938 1.37586C197.703 0.642364 144.622 0.0992753 93.5052 0.215868C25.8888 0.418143 26.1163 -0.21564 12.1559 0.0801259Z" fill="#B0E0F5"/>
</svg>
