<svg width="85" height="29" viewBox="0 0 85 29" fill="none" xmlns="http://www.w3.org/2000/svg">
<path d="M82.3242 6.27672C82.1906 11.5648 83.5234 16.8214 83.3572 22.0794C83.3292 22.971 83.9302 25.8582 83.3539 26.6187M83.3539 26.6187C82.6051 27.6056 79.5764 26.2853 78.8611 25.9972C75.2543 24.5443 68.988 21.9529 65.2427 19.9494M83.3539 26.6187C76.5248 13.9229 56.8508 2.42673 45.7684 9.42608M45.7684 9.42608C42.8343 11.2792 40.5025 14.4286 39.1707 19.1955C36.6528 28.2085 48.9513 30.4705 51.4744 22.2407C52.8669 17.6968 49.3713 12.7814 45.7684 9.42608ZM45.7684 9.42608C44.7336 8.46236 43.6899 7.62733 42.7507 6.96677C31.1058 -1.22296 12.7193 -0.719757 1.00011 6.86905" stroke="#B0E0F5" stroke-width="2" stroke-miterlimit="1.5" stroke-linecap="round" stroke-linejoin="round"/>
</svg>
