<svg width="37" height="46" viewBox="0 0 37 46" fill="none" xmlns="http://www.w3.org/2000/svg">
<path d="M30.8236 24.1523C30.8687 20.6464 32.7492 17.329 35.7324 15.4927C33.8505 12.8015 30.6982 11.0953 27.4186 10.9926C23.9207 10.6249 20.5296 13.0883 18.7471 13.0883C16.9301 13.0883 14.1857 11.029 11.2304 11.0899C7.3783 11.2145 3.78718 13.4073 1.91306 16.7792C-2.11556 23.7628 0.889427 34.0263 4.74851 39.6713C6.6793 42.4355 8.93583 45.5231 11.8885 45.4136C14.7778 45.2937 15.8569 43.5689 19.3445 43.5689C22.7998 43.5689 23.8122 45.4136 26.8248 45.344C29.9252 45.2936 31.8785 42.5675 33.7416 39.7772C35.1288 37.8076 36.1963 35.6308 36.9045 33.3274C33.261 31.7844 30.8279 28.1132 30.8236 24.1523Z" fill="white"/>
<path d="M25.1334 7.28014C26.8239 5.2483 27.6567 2.63672 27.455 0C24.8724 0.271592 22.4867 1.50745 20.7734 3.46133C19.0981 5.37037 18.2262 7.936 18.391 10.4719C20.9746 10.4986 23.5145 9.29622 25.1334 7.28014Z" fill="white"/>
</svg>
