<svg width="69" height="66" viewBox="0 0 69 66" fill="none" xmlns="http://www.w3.org/2000/svg">
<path d="M51.4762 0.999998C55.5148 4.41636 60.4472 6.66991 64.442 10.0929C65.1195 10.6731 67.7466 12.0131 67.9784 12.9386M67.9784 12.9386C68.2788 14.1405 65.3526 15.6745 64.6799 16.0517C61.2881 17.9533 55.3431 21.2149 51.4354 22.8796M67.9784 12.9386C53.8042 10.3101 32.5195 18.446 31.0343 31.4691M31.0343 31.4691C30.641 34.917 31.6356 38.7075 34.5173 42.7315C39.9662 50.3396 49.4328 42.1693 44.5977 35.0477C41.9278 31.116 35.9066 30.7622 31.0343 31.4691ZM31.0343 31.4691C29.6348 31.6722 28.3302 31.9627 27.227 32.2812C13.5489 36.2291 2.42468 50.8772 0.999997 64.766" stroke="#B0E0F5" stroke-width="2" stroke-miterlimit="1.5" stroke-linecap="round" stroke-linejoin="round"/>
</svg>
