<svg width="32" height="32" viewBox="0 0 32 32" fill="none" xmlns="http://www.w3.org/2000/svg">
<path d="M24.0535 18.0667C23.4935 18.6134 23.1735 19.4 23.2535 20.24C23.3735 21.68 24.6935 22.7334 26.1335 22.7334H28.6668V24.32C28.6668 27.08 26.4135 29.3334 23.6535 29.3334H8.34683C5.58683 29.3334 3.3335 27.08 3.3335 24.32V15.3467C3.3335 12.5867 5.58683 10.3334 8.34683 10.3334H23.6535C26.4135 10.3334 28.6668 12.5867 28.6668 15.3467V17.2667H25.9735C25.2268 17.2667 24.5468 17.56 24.0535 18.0667Z" stroke="#019CDE" stroke-width="1.5" stroke-linecap="round" stroke-linejoin="round"/>
<path d="M3.3335 16.5467V10.4534C3.3335 8.86674 4.30683 7.45335 5.78683 6.89335L16.3735 2.89335C18.0268 2.26669 19.8002 3.49339 19.8002 5.26673V10.3334" stroke="#019CDE" stroke-width="1.5" stroke-linecap="round" stroke-linejoin="round"/>
<path d="M30.0786 18.6269V21.3736C30.0786 22.1069 29.4919 22.7069 28.7452 22.7335H26.1319C24.6919 22.7335 23.3719 21.6802 23.2519 20.2402C23.1719 19.4002 23.4919 18.6135 24.0519 18.0669C24.5452 17.5602 25.2252 17.2669 25.9719 17.2669H28.7452C29.4919 17.2936 30.0786 17.8935 30.0786 18.6269Z" stroke="#019CDE" stroke-width="1.5" stroke-linecap="round" stroke-linejoin="round"/>
<path d="M9.3335 16H18.6668" stroke="#019CDE" stroke-width="1.5" stroke-linecap="round" stroke-linejoin="round"/>
</svg>
