<svg width="133" height="43" viewBox="0 0 133 43" fill="none" xmlns="http://www.w3.org/2000/svg">
<path d="M42.4164 23.3829C38.7343 23.3829 35.7331 26.1748 35.7331 30.0201C35.7331 33.8419 38.7343 36.6572 42.4164 36.6572C46.1001 36.6572 49.1012 33.8419 49.1012 30.0201C49.0996 26.1748 46.0985 23.3829 42.4164 23.3829ZM42.4164 34.0448C40.3984 34.0448 38.6591 32.3859 38.6591 30.0216C38.6591 27.6324 40.4 25.9985 42.4164 25.9985C44.4343 25.9985 46.1736 27.6324 46.1736 30.0216C46.1736 32.3844 44.4343 34.0448 42.4164 34.0448ZM27.8351 23.3829C24.1529 23.3829 21.1518 26.1748 21.1518 30.0201C21.1518 33.8419 24.1529 36.6572 27.8351 36.6572C31.5187 36.6572 34.5199 33.8419 34.5199 30.0201C34.5199 26.1748 31.5187 23.3829 27.8351 23.3829ZM27.8351 34.0448C25.8171 34.0448 24.0778 32.3859 24.0778 30.0216C24.0778 27.6324 25.8187 25.9985 27.8351 25.9985C29.853 25.9985 31.5923 27.6324 31.5923 30.0216C31.5939 32.3844 29.853 34.0448 27.8351 34.0448ZM10.4922 25.4211V28.2363H17.2521C17.0501 29.8203 16.521 30.9767 15.7132 31.7804C14.73 32.7605 13.1911 33.8419 10.4922 33.8419C6.33099 33.8419 3.07782 30.4976 3.07782 26.3496C3.07782 22.2016 6.33099 18.8573 10.4922 18.8573C12.7371 18.8573 14.3762 19.7374 15.5864 20.8689L17.5793 18.8822C15.8885 17.2733 13.6451 16.042 10.4922 16.042C4.79208 16.042 -2.86656e-07 20.6675 -2.86656e-07 26.3496C-2.86656e-07 32.0317 4.79208 36.6572 10.4922 36.6572C13.5684 36.6572 15.8901 35.6506 17.7045 33.7655C19.5707 31.9053 20.1515 29.2897 20.1515 27.1783C20.1515 26.5259 20.1014 25.922 19.9996 25.4195L10.4922 25.4211ZM81.423 27.6074C80.8688 26.1249 79.1781 23.3829 75.723 23.3829C72.2929 23.3829 69.4421 26.0734 69.4421 30.0201C69.4421 33.7405 72.2678 36.6572 76.0501 36.6572C79.1014 36.6572 80.8673 34.797 81.5999 33.7155L79.3299 32.2064C78.5738 33.3129 77.539 34.0417 76.0501 34.0417C74.5629 34.0417 73.503 33.3628 72.822 32.0301L81.7252 28.3596L81.423 27.6074ZM72.343 29.8203C72.2678 27.2547 74.3359 25.9485 75.8247 25.9485C76.9848 25.9485 77.9679 26.5275 78.2967 27.3562L72.343 29.8203ZM65.1055 36.2561H68.03V16.7474H65.1055V36.2561ZM60.3119 24.8671H60.2117C59.5558 24.0868 58.2939 23.3829 56.7065 23.3829C53.3766 23.3829 50.3254 26.2997 50.3254 30.0466C50.3254 33.767 53.3766 36.6588 56.7065 36.6588C58.2955 36.6588 59.5558 35.955 60.2117 35.1513H60.3119V36.1063C60.3119 38.6454 58.9499 40.0031 56.7566 40.0031C54.9656 40.0031 53.8557 38.7219 53.4017 37.6404L50.8546 38.6969C51.5857 40.4557 53.5269 42.6186 56.7566 42.6186C60.1867 42.6186 63.0876 40.607 63.0876 35.7037V23.7871H60.3135L60.3119 24.8671ZM56.9586 34.0448C54.9406 34.0448 53.2514 32.3594 53.2514 30.0466C53.2514 27.7073 54.9406 25.9985 56.9586 25.9985C58.9499 25.9985 60.5139 27.7073 60.5139 30.0466C60.5139 32.3594 58.9499 34.0448 56.9586 34.0448ZM95.1277 16.7474H88.1282V36.2561H91.0479V28.8653H95.1261C98.3636 28.8653 101.548 26.5291 101.548 22.8071C101.548 19.0851 98.3652 16.7474 95.1277 16.7474ZM95.2028 26.1498H91.0479V19.4628H95.2028C97.3867 19.4628 98.6266 21.2652 98.6266 22.8071C98.6266 24.3177 97.3867 26.1498 95.2028 26.1498ZM113.256 23.3486C111.141 23.3486 108.951 24.2772 108.045 26.3356L110.637 27.4139C111.192 26.3356 112.225 25.9829 113.307 25.9829C114.817 25.9829 116.353 26.8864 116.378 28.4923V28.6936C115.849 28.3924 114.716 27.9414 113.332 27.9414C110.537 27.9414 107.691 29.4723 107.691 32.3329C107.691 34.9437 109.983 36.6244 112.55 36.6244C114.514 36.6244 115.597 35.7458 116.276 34.7159H116.377V36.2218H119.198V28.742C119.199 25.2806 116.604 23.3486 113.256 23.3486ZM112.903 34.0401C111.948 34.0401 110.612 33.5626 110.612 32.3828C110.612 30.8768 112.275 30.2994 113.71 30.2994C114.993 30.2994 115.598 30.5756 116.378 30.9517C116.151 32.7605 114.59 34.0401 112.903 34.0401ZM129.471 23.7746L126.122 32.233H126.022L122.546 23.7746H119.4L124.611 35.596L121.64 42.1723H124.686L132.719 23.7746H129.471ZM103.16 36.2561H106.08V16.7474H103.16V36.2561Z" fill="white"/>
<path d="M10.1276 5.20815C10.1276 6.49222 9.73973 7.51427 8.96235 8.27735C8.08019 9.18448 6.92899 9.63804 5.51503 9.63804C4.16049 9.63804 3.00773 9.17835 2.06144 8.25896C1.11358 7.33805 0.639648 6.19802 0.639648 4.83733C0.639648 3.47512 1.11358 2.33508 2.06144 1.4157C3.00773 0.494788 4.16049 0.0350985 5.51503 0.0350985C6.1876 0.0350985 6.83045 0.163811 7.44046 0.419706C8.05203 0.677132 8.54161 1.01884 8.90761 1.44635L8.08332 2.2554C7.46236 1.52756 6.60678 1.1644 5.51346 1.1644C4.52493 1.1644 3.67092 1.50458 2.94986 2.18492C2.2288 2.86526 1.86905 3.7494 1.86905 4.8358C1.86905 5.9222 2.2288 6.80634 2.94986 7.48668C3.67092 8.16703 4.52493 8.5072 5.51346 8.5072C6.56142 8.5072 7.43577 8.16549 8.13493 7.48056C8.58853 7.03466 8.8513 6.41407 8.92169 5.61881H5.51346V4.51402H10.0604C10.1073 4.75459 10.1276 4.98597 10.1276 5.20815Z" fill="white"/>
<path d="M17.3384 1.36829H13.0652V4.28273H16.9192V5.38752H13.0652V8.30196H17.3384V9.4328H11.8593V0.238981H17.3384V1.36829Z" fill="white"/>
<path d="M22.4232 9.4328H21.2172V1.36829H18.5958V0.238981H25.0447V1.36829H22.4232V9.4328Z" fill="white"/>
<path d="M29.7104 9.4328V0.238981H30.9163V9.4328H29.7104Z" fill="white"/>
<path d="M36.2643 9.4328H35.0584V1.36829H32.4369V0.238981H38.8858V1.36829H36.2643V9.4328Z" fill="white"/>
<path d="M51.0934 8.24525C50.1706 9.17382 49.0241 9.63811 47.6523 9.63811C46.2806 9.63811 45.1341 9.17382 44.2128 8.24525C43.29 7.31667 42.8301 6.1797 42.8301 4.83587C42.8301 3.49204 43.29 2.35508 44.2128 1.4265C45.1341 0.497924 46.2806 0.0321045 47.6523 0.0321045C49.0163 0.0321045 50.1612 0.499456 51.0872 1.43263C52.0131 2.3658 52.4761 3.49971 52.4761 4.83587C52.4761 6.1797 52.0147 7.31667 51.0934 8.24525ZM45.1028 7.4745C45.7973 8.16404 46.6466 8.50727 47.6523 8.50727C48.6581 8.50727 49.509 8.1625 50.2019 7.4745C50.8963 6.78496 51.2451 5.90542 51.2451 4.83587C51.2451 3.76633 50.8963 2.88678 50.2019 2.19725C49.509 1.50771 48.6581 1.16448 47.6523 1.16448C46.6466 1.16448 45.7973 1.50924 45.1028 2.19725C44.4099 2.88678 44.0611 3.76633 44.0611 4.83587C44.0611 5.90542 44.4099 6.78496 45.1028 7.4745Z" fill="white"/>
<path d="M54.1685 9.4328V0.238981H55.6357L60.1967 7.39024H60.2483L60.1967 5.6189V0.238981H61.4026V9.4328H60.1435L55.3713 1.93371H55.3197L55.3713 3.70505V9.4328H54.1685Z" fill="white"/>
<path d="M10.1276 5.20815C10.1276 6.49222 9.73973 7.51427 8.96235 8.27735C8.08019 9.18448 6.92899 9.63804 5.51503 9.63804C4.16049 9.63804 3.00773 9.17835 2.06144 8.25896C1.11358 7.33805 0.639648 6.19802 0.639648 4.83733C0.639648 3.47512 1.11358 2.33508 2.06144 1.4157C3.00773 0.494788 4.16049 0.0350985 5.51503 0.0350985C6.1876 0.0350985 6.83045 0.163811 7.44046 0.419706C8.05203 0.677132 8.54161 1.01884 8.90761 1.44635L8.08332 2.2554C7.46236 1.52756 6.60678 1.1644 5.51346 1.1644C4.52493 1.1644 3.67092 1.50458 2.94986 2.18492C2.2288 2.86526 1.86905 3.7494 1.86905 4.8358C1.86905 5.9222 2.2288 6.80634 2.94986 7.48668C3.67092 8.16703 4.52493 8.5072 5.51346 8.5072C6.56142 8.5072 7.43577 8.16549 8.13493 7.48056C8.58853 7.03466 8.8513 6.41407 8.92169 5.61881H5.51346V4.51402H10.0604C10.1073 4.75459 10.1276 4.98597 10.1276 5.20815Z" stroke="white" stroke-width="0.0642107" stroke-miterlimit="10"/>
<path d="M17.3384 1.36829H13.0652V4.28273H16.9192V5.38752H13.0652V8.30196H17.3384V9.4328H11.8593V0.238981H17.3384V1.36829Z" stroke="white" stroke-width="0.0642107" stroke-miterlimit="10"/>
<path d="M22.4232 9.4328H21.2172V1.36829H18.5958V0.238981H25.0447V1.36829H22.4232V9.4328Z" stroke="white" stroke-width="0.0642107" stroke-miterlimit="10"/>
<path d="M29.7104 9.4328V0.238981H30.9163V9.4328H29.7104Z" stroke="white" stroke-width="0.0642107" stroke-miterlimit="10"/>
<path d="M36.2643 9.4328H35.0584V1.36829H32.4369V0.238981H38.8858V1.36829H36.2643V9.4328Z" stroke="white" stroke-width="0.0642107" stroke-miterlimit="10"/>
<path d="M51.0934 8.24525C50.1706 9.17382 49.0241 9.63811 47.6523 9.63811C46.2806 9.63811 45.1341 9.17382 44.2128 8.24525C43.29 7.31667 42.8301 6.1797 42.8301 4.83587C42.8301 3.49204 43.29 2.35508 44.2128 1.4265C45.1341 0.497924 46.2806 0.0321045 47.6523 0.0321045C49.0163 0.0321045 50.1612 0.499456 51.0872 1.43263C52.0131 2.3658 52.4761 3.49971 52.4761 4.83587C52.4761 6.1797 52.0147 7.31667 51.0934 8.24525ZM45.1028 7.4745C45.7973 8.16404 46.6466 8.50727 47.6523 8.50727C48.6581 8.50727 49.509 8.1625 50.2019 7.4745C50.8963 6.78496 51.2451 5.90542 51.2451 4.83587C51.2451 3.76633 50.8963 2.88678 50.2019 2.19725C49.509 1.50771 48.6581 1.16448 47.6523 1.16448C46.6466 1.16448 45.7973 1.50924 45.1028 2.19725C44.4099 2.88678 44.0611 3.76633 44.0611 4.83587C44.0611 5.90542 44.4099 6.78496 45.1028 7.4745Z" stroke="white" stroke-width="0.0642107" stroke-miterlimit="10"/>
<path d="M54.1685 9.4328V0.238981H55.6357L60.1967 7.39024H60.2483L60.1967 5.6189V0.238981H61.4026V9.4328H60.1435L55.3713 1.93371H55.3197L55.3713 3.70505V9.4328H54.1685Z" stroke="white" stroke-width="0.0642107" stroke-miterlimit="10"/>
</svg>
