<svg width="39" height="43" viewBox="0 0 39 43" fill="none" xmlns="http://www.w3.org/2000/svg">
<g filter="url(#filter0_ii_2219_5217)">
<path d="M0.767459 0.658934C0.285105 1.1701 -7.08193e-07 1.9634 -7.08193e-07 2.99071V39.695C-7.08193e-07 40.7239 0.285105 41.5156 0.767459 42.0267L0.890119 42.1462L21.4258 21.5851V21.3428V21.1005L0.890119 0.537781L0.767459 0.658934Z" fill="url(#paint0_linear_2219_5217)"/>
<path d="M28.2697 28.4406L21.4255 21.5847V21.3424V21.1001L28.2713 14.2459L28.4255 14.3338L36.536 18.9476C38.8516 20.2653 38.8516 22.4212 36.536 23.7406L28.4255 28.3543L28.2697 28.4406Z" fill="url(#paint1_linear_2219_5217)"/>
<g filter="url(#filter1_i_2219_5217)">
<path d="M28.4257 28.3527L21.4241 21.3425L0.767335 42.0264C1.52982 42.8363 2.79123 42.9359 4.21178 42.1293L28.4257 28.3527Z" fill="url(#paint2_linear_2219_5217)"/>
</g>
<path d="M28.4257 14.3326L4.21178 0.557759C2.79123 -0.250479 1.52982 -0.149241 0.767335 0.660656L21.4257 21.3446L28.4257 14.3326Z" fill="url(#paint3_linear_2219_5217)"/>
</g>
<defs>
<filter id="filter0_ii_2219_5217" x="0" y="0" width="38.2727" height="42.6864" filterUnits="userSpaceOnUse" color-interpolation-filters="sRGB">
<feFlood flood-opacity="0" result="BackgroundImageFix"/>
<feBlend mode="normal" in="SourceGraphic" in2="BackgroundImageFix" result="shape"/>
<feColorMatrix in="SourceAlpha" type="matrix" values="0 0 0 0 0 0 0 0 0 0 0 0 0 0 0 0 0 0 127 0" result="hardAlpha"/>
<feOffset dy="-0.249607"/>
<feComposite in2="hardAlpha" operator="arithmetic" k2="-1" k3="1"/>
<feColorMatrix type="matrix" values="0 0 0 0 0 0 0 0 0 0 0 0 0 0 0 0 0 0 0.12 0"/>
<feBlend mode="normal" in2="shape" result="effect1_innerShadow_2219_5217"/>
<feColorMatrix in="SourceAlpha" type="matrix" values="0 0 0 0 0 0 0 0 0 0 0 0 0 0 0 0 0 0 127 0" result="hardAlpha"/>
<feOffset dy="0.249607"/>
<feComposite in2="hardAlpha" operator="arithmetic" k2="-1" k3="1"/>
<feColorMatrix type="matrix" values="0 0 0 0 1 0 0 0 0 1 0 0 0 0 1 0 0 0 0.25 0"/>
<feBlend mode="normal" in2="effect1_innerShadow_2219_5217" result="effect2_innerShadow_2219_5217"/>
</filter>
<filter id="filter1_i_2219_5217" x="0.767334" y="21.3425" width="27.6582" height="21.3439" filterUnits="userSpaceOnUse" color-interpolation-filters="sRGB">
<feFlood flood-opacity="0" result="BackgroundImageFix"/>
<feBlend mode="normal" in="SourceGraphic" in2="BackgroundImageFix" result="shape"/>
<feColorMatrix in="SourceAlpha" type="matrix" values="0 0 0 0 0 0 0 0 0 0 0 0 0 0 0 0 0 0 127 0" result="hardAlpha"/>
<feOffset dy="-0.249607"/>
<feComposite in2="hardAlpha" operator="arithmetic" k2="-1" k3="1"/>
<feColorMatrix type="matrix" values="0 0 0 0 0 0 0 0 0 0 0 0 0 0 0 0 0 0 0.08 0"/>
<feBlend mode="normal" in2="shape" result="effect1_innerShadow_2219_5217"/>
</filter>
<linearGradient id="paint0_linear_2219_5217" x1="19.6055" y1="2.60235" x2="-8.24632" y2="30.4198" gradientUnits="userSpaceOnUse">
<stop stop-color="#00A0FF"/>
<stop offset="0.0066" stop-color="#00A1FF"/>
<stop offset="0.2601" stop-color="#00BEFF"/>
<stop offset="0.5122" stop-color="#00D2FF"/>
<stop offset="0.7604" stop-color="#00DFFF"/>
<stop offset="1" stop-color="#00E3FF"/>
</linearGradient>
<linearGradient id="paint1_linear_2219_5217" x1="39.5503" y1="21.3424" x2="-0.556247" y2="21.3424" gradientUnits="userSpaceOnUse">
<stop stop-color="#FFE000"/>
<stop offset="0.4087" stop-color="#FFBD00"/>
<stop offset="0.7754" stop-color="#FFA500"/>
<stop offset="1" stop-color="#FF9C00"/>
</linearGradient>
<linearGradient id="paint2_linear_2219_5217" x1="24.6233" y1="25.1495" x2="-13.1472" y2="62.8734" gradientUnits="userSpaceOnUse">
<stop stop-color="#FF3A44"/>
<stop offset="1" stop-color="#C31162"/>
</linearGradient>
<linearGradient id="paint3_linear_2219_5217" x1="-4.43514" y1="-11.5578" x2="12.4305" y2="5.28694" gradientUnits="userSpaceOnUse">
<stop stop-color="#32A071"/>
<stop offset="0.0685" stop-color="#2DA771"/>
<stop offset="0.4762" stop-color="#15CF74"/>
<stop offset="0.8009" stop-color="#06E775"/>
<stop offset="1" stop-color="#00F076"/>
</linearGradient>
</defs>
</svg>
