<svg width="19" height="22" viewBox="0 0 19 22" fill="none" xmlns="http://www.w3.org/2000/svg">
<path d="M18.3421 5.1261V8.77502C17.7044 8.71273 16.8757 8.56786 15.9591 8.23208C14.7622 7.79339 13.8713 7.19361 13.2877 6.7292V14.1042L13.2729 14.0812C13.2823 14.2274 13.2877 14.3763 13.2877 14.5266C13.2877 18.1891 10.3077 21.1705 6.64387 21.1705C2.98006 21.1705 0 18.1891 0 14.5266C0 10.8642 2.98006 7.88142 6.64387 7.88142C7.00267 7.88142 7.35471 7.90984 7.69861 7.96535V11.5615C7.36825 11.4437 7.0135 11.38 6.64387 11.38C4.90945 11.38 3.49728 12.7909 3.49728 14.5266C3.49728 16.2624 4.90945 17.6732 6.64387 17.6732C8.37829 17.6732 9.79047 16.2611 9.79047 14.5266C9.79047 14.4616 9.78912 14.3967 9.78506 14.3317V0H13.4313C13.4448 0.308703 13.457 0.620128 13.4705 0.92883C13.4949 1.53676 13.7115 2.12032 14.0893 2.59827C14.532 3.16017 15.186 3.81275 16.104 4.33402C16.9637 4.8201 17.7707 5.02997 18.3421 5.12881V5.1261Z" fill="white"/>
</svg>
