<svg width="32" height="32" viewBox="0 0 32 32" fill="none" xmlns="http://www.w3.org/2000/svg">
<path d="M28 7.97331C23.56 7.53331 19.0933 7.30664 14.64 7.30664C12 7.30664 9.36 7.43997 6.72 7.70664L4 7.97331" stroke="#019CDE" stroke-width="1.5" stroke-linecap="round" stroke-linejoin="round"/>
<path d="M11.3333 6.62663L11.6266 4.87996C11.8399 3.61329 11.9999 2.66663 14.2533 2.66663H17.7466C19.9999 2.66663 20.1733 3.66663 20.3733 4.89329L20.6666 6.62663" stroke="#019CDE" stroke-width="1.5" stroke-linecap="round" stroke-linejoin="round"/>
<path d="M25.1334 12.1866L24.2667 25.6133C24.12 27.7066 24 29.3333 20.28 29.3333H11.72C8.00003 29.3333 7.88003 27.7066 7.73337 25.6133L6.8667 12.1866" stroke="#019CDE" stroke-width="1.5" stroke-linecap="round" stroke-linejoin="round"/>
<path d="M13.7734 22H18.2134" stroke="#019CDE" stroke-width="1.5" stroke-linecap="round" stroke-linejoin="round"/>
<path d="M12.6667 16.6666H19.3334" stroke="#019CDE" stroke-width="1.5" stroke-linecap="round" stroke-linejoin="round"/>
</svg>
