<svg width="25" height="18" viewBox="0 0 25 18" fill="none" xmlns="http://www.w3.org/2000/svg">
<path d="M24.5446 4.62703C24.3926 3.15938 24.0654 1.53695 22.8611 0.684322C21.9284 0.0231317 20.7024 -0.00131194 19.5579 4.57413e-05C17.1385 0.00140342 14.7177 0.00412409 12.2984 0.00548177C9.97129 0.00819713 7.64421 0.00956144 5.31715 0.0122768C4.34505 0.0136345 3.4001 -0.062389 2.49724 0.358492C1.722 0.719635 1.11512 1.4066 0.749904 2.17098C0.243488 3.23404 0.137595 4.43832 0.0764989 5.61407C-0.0361887 7.75513 -0.0239695 9.90164 0.110441 12.0413C0.209552 13.6027 0.460719 15.3283 1.6677 16.3234C2.73755 17.2046 4.24729 17.248 5.63484 17.2494C10.0392 17.2535 14.4448 17.2575 18.8505 17.2603C19.4153 17.2616 20.0046 17.2507 20.5802 17.1883C21.7125 17.0661 22.7919 16.7416 23.5196 15.9026C24.2541 15.0567 24.4428 13.8796 24.5541 12.765C24.8257 10.0605 24.823 7.33017 24.5446 4.62703ZM9.75134 12.4215V4.83884L16.3171 8.62947L9.75134 12.4215Z" fill="white"/>
</svg>
