<svg width="140" height="46" viewBox="0 0 140 46" fill="none" xmlns="http://www.w3.org/2000/svg">
<path d="M87.2776 18.7737V23.0221H84.6179V25.8082H87.2776V35.2748C87.2776 38.5073 88.7381 39.8003 92.4125 39.8003C93.0582 39.8003 93.6731 39.7233 94.2112 39.631V36.8757C93.75 36.9218 93.4579 36.9526 92.9505 36.9526C91.3055 36.9526 90.583 36.183 90.583 34.4282V25.8082H94.2112V23.0221H90.583V18.7737H87.2776Z" fill="white"/>
<path d="M103.571 40.0312C108.46 40.0312 111.458 36.7525 111.458 31.3188C111.458 25.9159 108.445 22.6219 103.571 22.6219C98.6825 22.6219 95.6693 25.9159 95.6693 31.3188C95.6693 36.7525 98.6672 40.0312 103.571 40.0312ZM103.571 37.0912C100.697 37.0912 99.0822 34.9823 99.0822 31.3188C99.0822 27.6861 100.697 25.5619 103.571 25.5619C106.431 25.5619 108.061 27.6861 108.061 31.3188C108.061 34.9669 106.431 37.0912 103.571 37.0912Z" fill="white"/>
<path d="M114.023 39.7079H117.329V29.8103C117.329 27.4552 119.097 25.8698 121.602 25.8698C122.187 25.8698 123.171 25.9775 123.447 26.0699V22.8066C123.094 22.7142 122.463 22.668 121.971 22.668C119.788 22.668 117.928 23.8687 117.452 25.5157H117.206V22.9451H114.023V39.7079Z" fill="white"/>
<path d="M131.655 25.4388C134.099 25.4388 135.698 27.1474 135.775 29.7795H127.319C127.504 27.1628 129.21 25.4388 131.655 25.4388ZM135.759 35.1824C135.144 36.4908 133.776 37.2143 131.778 37.2143C129.133 37.2143 127.427 35.3518 127.319 32.4117V32.227H139.142V31.0725C139.142 25.8082 136.328 22.6219 131.67 22.6219C126.95 22.6219 123.952 26.0237 123.952 31.3804C123.952 36.7371 126.889 40.0312 131.685 40.0312C135.513 40.0312 138.188 38.184 138.942 35.1824H135.759Z" fill="white"/>
<path d="M65.6014 33.5177C65.8563 37.6339 69.2823 40.2663 74.3813 40.2663C79.831 40.2663 83.2409 37.5063 83.2409 33.1029C83.2409 29.6408 81.2969 27.7263 76.5803 26.6255L74.0467 26.0032C71.051 25.3013 69.84 24.36 69.84 22.7167C69.84 20.6426 71.7203 19.2865 74.5407 19.2865C77.2177 19.2865 79.0661 20.6107 79.4007 22.7326H82.8745C82.6673 18.8557 79.2573 16.1276 74.5885 16.1276C69.5691 16.1276 66.2228 18.8557 66.2228 22.956C66.2228 26.3383 68.119 28.3485 72.278 29.3217L75.2418 30.0397C78.2853 30.7576 79.6238 31.8106 79.6238 33.5656C79.6238 35.6077 77.5204 37.0914 74.6522 37.0914C71.5769 37.0914 69.4416 35.7034 69.1389 33.5177H65.6014Z" fill="white"/>
<path d="M31.361 22.668C29.0857 22.668 27.1179 23.8071 26.1032 25.7158H25.8572V22.9451H22.6748V45.2802H25.9802V37.1681H26.2415C27.1179 38.9383 29.0088 39.985 31.3918 39.985C35.6196 39.985 38.31 36.6448 38.31 31.3188C38.31 25.9929 35.6196 22.668 31.361 22.668ZM30.4232 37.0142C27.6559 37.0142 25.9187 34.8284 25.9187 31.3342C25.9187 27.8247 27.6559 25.6389 30.4386 25.6389C33.2366 25.6389 34.9124 27.7785 34.9124 31.3188C34.9124 34.8746 33.2366 37.0142 30.4232 37.0142Z" fill="white"/>
<path d="M49.8761 22.668C47.6008 22.668 45.6329 23.8071 44.6182 25.7158H44.3722V22.9451H41.1899V45.2802H44.4952V37.1681H44.7566C45.6329 38.9383 47.5239 39.985 49.9068 39.985C54.1346 39.985 56.8251 36.6448 56.8251 31.3188C56.8251 25.9929 54.1346 22.668 49.8761 22.668ZM48.9383 37.0142C46.171 37.0142 44.4337 34.8284 44.4337 31.3342C44.4337 27.8247 46.171 25.6389 48.9537 25.6389C51.7517 25.6389 53.4274 27.7785 53.4274 31.3188C53.4274 34.8746 51.7517 37.0142 48.9383 37.0142Z" fill="white"/>
<path d="M16.7444 39.7079H20.5368L12.2349 16.686H8.39468L0.0927734 39.7079H3.75772L5.87702 33.5975H14.641L16.7444 39.7079ZM10.1315 20.866H10.4024L13.7328 30.5981H6.78529L10.1315 20.866Z" fill="white"/>
<path d="M0 0.447748V9.54775H3.28153C5.98989 9.54775 7.55822 7.87657 7.55822 4.96937C7.55822 2.10631 5.9773 0.447748 3.28153 0.447748H0ZM1.41087 1.73423H3.12407C5.00732 1.73423 6.12216 2.93243 6.12216 4.98829C6.12216 7.07567 5.02622 8.26126 3.12407 8.26126H1.41087V1.73423Z" fill="white"/>
<path d="M12.3615 9.68018C14.3644 9.68018 15.5926 8.33694 15.5926 6.11081C15.5926 3.8973 14.3581 2.54775 12.3615 2.54775C10.3585 2.54775 9.12404 3.8973 9.12404 6.11081C9.12404 8.33694 10.3522 9.68018 12.3615 9.68018ZM12.3615 8.47567C11.1837 8.47567 10.5223 7.61171 10.5223 6.11081C10.5223 4.62252 11.1837 3.75225 12.3615 3.75225C13.533 3.75225 14.2006 4.62252 14.2006 6.11081C14.2006 7.6054 13.533 8.47567 12.3615 8.47567Z" fill="white"/>
<path d="M26.0519 2.68018H24.6978L23.4758 7.92072H23.3688L21.9579 2.68018H20.6604L19.2495 7.92072H19.1488L17.9205 2.68018H16.5475L18.437 9.54775H19.829L21.2399 4.49009H21.3469L22.7641 9.54775H24.1687L26.0519 2.68018Z" fill="white"/>
<path d="M27.6114 9.54775H28.9656V5.53063C28.9656 4.45856 29.6018 3.79009 30.6032 3.79009C31.6047 3.79009 32.0834 4.33874 32.0834 5.44234V9.54775H33.4376V5.1018C33.4376 3.46847 32.5936 2.54775 31.063 2.54775C30.0301 2.54775 29.3498 3.00811 29.016 3.77117H28.9152V2.68018H27.6114V9.54775Z" fill="white"/>
<path d="M35.5703 9.54775H36.9244V0H35.5703V9.54775Z" fill="white"/>
<path d="M42.0174 9.68018C44.0204 9.68018 45.2486 8.33694 45.2486 6.11081C45.2486 3.8973 44.0141 2.54775 42.0174 2.54775C40.0145 2.54775 38.78 3.8973 38.78 6.11081C38.78 8.33694 40.0082 9.68018 42.0174 9.68018ZM42.0174 8.47567C40.8396 8.47567 40.1783 7.61171 40.1783 6.11081C40.1783 4.62252 40.8396 3.75225 42.0174 3.75225C43.1889 3.75225 43.8566 4.62252 43.8566 6.11081C43.8566 7.6054 43.1889 8.47567 42.0174 8.47567Z" fill="white"/>
<path d="M49.2834 8.51982C48.5465 8.51982 48.0111 8.16036 48.0111 7.54234C48.0111 6.93694 48.4394 6.61531 49.3842 6.55225L51.0596 6.44504V7.01892C51.0596 7.87027 50.3038 8.51982 49.2834 8.51982ZM48.937 9.66126C49.8377 9.66126 50.5872 9.27027 50.9966 8.58288H51.1037V9.54775H52.4075V4.85585C52.4075 3.4054 51.4375 2.54775 49.718 2.54775C48.1623 2.54775 47.0537 3.3045 46.9152 4.48378H48.2252C48.3764 3.9982 48.8992 3.72072 49.655 3.72072C50.5809 3.72072 51.0596 4.13063 51.0596 4.85585V5.44865L49.2015 5.55585C47.5702 5.65676 46.6506 6.36937 46.6506 7.6054C46.6506 8.86036 47.6143 9.66126 48.937 9.66126Z" fill="white"/>
<path d="M57.0029 9.66126C57.9476 9.66126 58.7476 9.21351 59.157 8.46306H59.264V9.54775H60.5615V0H59.2073V3.77117H59.1066C58.735 3.01441 57.9413 2.56667 57.0029 2.56667C55.2708 2.56667 54.1559 3.94144 54.1559 6.11081C54.1559 8.28648 55.2582 9.66126 57.0029 9.66126ZM57.3871 3.78378C58.5208 3.78378 59.2325 4.68558 59.2325 6.11712C59.2325 7.55495 58.5271 8.44414 57.3871 8.44414C56.2407 8.44414 55.5542 7.56757 55.5542 6.11081C55.5542 4.66667 56.247 3.78378 57.3871 3.78378Z" fill="white"/>
<path d="M69.3429 9.68018C71.3458 9.68018 72.5741 8.33694 72.5741 6.11081C72.5741 3.8973 71.3396 2.54775 69.3429 2.54775C67.34 2.54775 66.1055 3.8973 66.1055 6.11081C66.1055 8.33694 67.3337 9.68018 69.3429 9.68018ZM69.3429 8.47567C68.1651 8.47567 67.5038 7.61171 67.5038 6.11081C67.5038 4.62252 68.1651 3.75225 69.3429 3.75225C70.5145 3.75225 71.1821 4.62252 71.1821 6.11081C71.1821 7.6054 70.5145 8.47567 69.3429 8.47567Z" fill="white"/>
<path d="M74.3666 9.54775H75.7208V5.53063C75.7208 4.45856 76.357 3.79009 77.3584 3.79009C78.3599 3.79009 78.8386 4.33874 78.8386 5.44234V9.54775H80.1928V5.1018C80.1928 3.46847 79.3488 2.54775 77.8182 2.54775C76.7853 2.54775 76.105 3.00811 75.7712 3.77117H75.6704V2.68018H74.3666V9.54775Z" fill="white"/>
<path d="M86.4295 0.971171V2.71171H85.3399V3.85315H86.4295V7.73153C86.4295 9.05585 87.0279 9.58558 88.5332 9.58558C88.7978 9.58558 89.0497 9.55405 89.2702 9.51621V8.38739C89.0812 8.4063 88.9615 8.41892 88.7537 8.41892C88.0798 8.41892 87.7837 8.1036 87.7837 7.38468V3.85315H89.2702V2.71171H87.7837V0.971171H86.4295Z" fill="white"/>
<path d="M91.0879 9.54775H92.4421V5.53694C92.4421 4.4964 93.0594 3.7964 94.1679 3.7964C95.1253 3.7964 95.6355 4.35135 95.6355 5.44865V9.54775H96.9896V5.11441C96.9896 3.48108 96.089 2.55405 94.6277 2.55405C93.5947 2.55405 92.8704 3.01441 92.5366 3.78378H92.4295V0H91.0879V9.54775Z" fill="white"/>
<path d="M101.875 3.7018C102.876 3.7018 103.531 4.4018 103.563 5.48018H100.099C100.174 4.40811 100.873 3.7018 101.875 3.7018ZM103.556 7.69369C103.305 8.22973 102.744 8.52612 101.925 8.52612C100.842 8.52612 100.143 7.76306 100.099 6.55856V6.48288H104.942V6.00991C104.942 3.85315 103.79 2.54775 101.881 2.54775C99.9474 2.54775 98.7192 3.94144 98.7192 6.13603C98.7192 8.33063 99.9222 9.68018 101.887 9.68018C103.456 9.68018 104.552 8.92342 104.86 7.69369H103.556Z" fill="white"/>
</svg>
